<svg width="28" height="28" viewBox="0 0 28 28" fill="none" xmlns="http://www.w3.org/2000/svg">
<path d="M5.8335 6.2C5.39167 6.2 5.0335 6.55817 5.0335 7C5.0335 7.44183 5.39167 7.8 5.8335 7.8V6.2ZM22.1668 7.8C22.6087 7.8 22.9668 7.44183 22.9668 7C22.9668 6.55817 22.6087 6.2 22.1668 6.2V7.8ZM5.8335 20.2C5.39167 20.2 5.0335 20.5582 5.0335 21C5.0335 21.4418 5.39167 21.8 5.8335 21.8V20.2ZM22.1668 21.8C22.6087 21.8 22.9668 21.4418 22.9668 21C22.9668 20.5582 22.6087 20.2 22.1668 20.2V21.8ZM5.8335 7.8H22.1668V6.2H5.8335V7.8ZM5.8335 21.8H22.1668V20.2H5.8335V21.8Z" fill="#929C99"/>
<path d="M5.8335 13.2C5.39167 13.2 5.0335 13.5582 5.0335 14C5.0335 14.4418 5.39167 14.8 5.8335 14.8V13.2ZM22.1668 14.8C22.6087 14.8 22.9668 14.4418 22.9668 14C22.9668 13.5582 22.6087 13.2 22.1668 13.2V14.8ZM5.8335 14.8H22.1668V13.2H5.8335V14.8Z" fill="#929C99"/>
</svg>
