<svg width="28" height="28" viewBox="0 0 28 28" fill="none" xmlns="http://www.w3.org/2000/svg">
<path fill-rule="evenodd" clip-rule="evenodd" d="M3.5002 2.69995C3.05837 2.69995 2.7002 3.05812 2.7002 3.49995C2.7002 3.94178 3.05837 4.29995 3.5002 4.29995H5.37163C5.94066 4.29995 6.43145 4.69959 6.54674 5.25682L7.16613 8.25055C7.17175 8.30439 7.1827 8.35664 7.19846 8.40677L9.38683 18.9839C9.65584 20.2841 10.801 21.2166 12.1288 21.2166H20.4169C20.8587 21.2166 21.2169 20.8584 21.2169 20.4166C21.2169 19.9748 20.8587 19.6166 20.4169 19.6166H12.1288C11.5597 19.6166 11.0689 19.217 10.9536 18.6597L10.6378 17.1333H19.904C21.6006 17.1333 23.0916 16.0086 23.5577 14.3772L24.9052 9.66112C25.2337 8.51125 24.3703 7.36662 23.1745 7.36662H8.61714L8.11356 4.93266C7.84455 3.63245 6.69937 2.69995 5.37163 2.69995H3.5002ZM8.94817 8.96662L10.3068 15.5333H19.904C20.8862 15.5333 21.7495 14.8821 22.0193 13.9377L23.3668 9.22156C23.4033 9.0938 23.3073 8.96662 23.1745 8.96662H8.94817ZM20.7267 24.1788C20.7267 24.9198 20.126 25.5205 19.385 25.5205C18.644 25.5205 18.0433 24.9198 18.0433 24.1788C18.0433 23.4379 18.644 22.8372 19.385 22.8372C20.126 22.8372 20.7267 23.4379 20.7267 24.1788ZM12.0954 22.8371C12.8354 22.8371 13.4353 23.437 13.4353 24.177C13.4353 24.9171 12.8354 25.517 12.0954 25.517C11.3554 25.517 10.7555 24.9171 10.7555 24.177C10.7555 23.437 11.3554 22.8371 12.0954 22.8371Z" fill="#929C99"/>
</svg>
