<svg width="20" height="20" viewBox="0 0 20 20" fill="none" xmlns="http://www.w3.org/2000/svg">
<path fill-rule="evenodd" clip-rule="evenodd" d="M2.4667 8.6667C2.4667 5.24253 5.24253 2.4667 8.6667 2.4667C12.0909 2.4667 14.8667 5.24253 14.8667 8.6667C14.8667 12.0909 12.0909 14.8667 8.6667 14.8667C5.24253 14.8667 2.4667 12.0909 2.4667 8.6667ZM8.6667 0.866699C4.35888 0.866699 0.866699 4.35888 0.866699 8.6667C0.866699 12.9745 4.35888 16.4667 8.6667 16.4667C10.5325 16.4667 12.2452 15.8116 13.5875 14.7189L18.601 19.7324C18.9134 20.0448 19.42 20.0448 19.7324 19.7324C20.0448 19.42 20.0448 18.9134 19.7324 18.601L14.7189 13.5875C15.8116 12.2452 16.4667 10.5325 16.4667 8.6667C16.4667 4.35888 12.9745 0.866699 8.6667 0.866699Z" fill="#929C99"/>
</svg>
